<svg width="391" height="383" viewBox="0 0 391 383" fill="none" xmlns="http://www.w3.org/2000/svg">
<path opacity="0.18" d="M387.479 254.285C380.921 228.494 362.827 206.654 357.089 180.663C351.881 157.033 357.389 132.503 357.239 108.312C357.029 74.6116 344.243 39.491 317.112 19.4607C290.671 -0.089606 255.132 -2.53965 222.533 1.87042C189.933 6.2805 158.313 16.6707 125.564 20.0607C110.649 21.6107 95.3737 21.7307 81.1583 26.5208C57.216 34.601 39.5017 54.8213 25.1763 75.6316C14.9996 90.3919 5.74263 106.242 2.01383 123.772C-5.76366 160.413 11.5308 197.774 11.0109 235.174C10.771 252.854 6.55236 270.585 9.16152 288.065C13.6801 318.396 38.0722 342.336 65.0135 356.986C102.541 377.406 146.397 383.987 189.093 382.237C260.23 379.277 415.15 363.206 387.479 254.285Z" fill="#9CA7A5"/>
<path d="M84.8072 329.976C84.5864 329.833 84.3959 329.648 84.2467 329.431C84.0975 329.215 83.9925 328.971 83.9377 328.713C83.8829 328.456 83.8794 328.19 83.9274 327.932C83.9754 327.673 84.074 327.426 84.2174 327.206L163.192 204.924L166.551 207.104L87.5763 329.386C87.4334 329.607 87.2484 329.797 87.0318 329.946C86.8152 330.096 86.5714 330.201 86.3141 330.256C86.0569 330.31 85.7914 330.314 85.5328 330.266C85.2742 330.218 85.0276 330.119 84.8072 329.976Z" fill="#7DA39C"/>
<path opacity="0.18" d="M173.538 335.176C130.482 335.716 91.7848 333.116 49.0186 336.366C62.3543 341.526 82.5378 349.276 98.0028 350.366C166.781 355.366 236.128 357.036 305.296 355.426C309.994 355.316 314.913 355.156 318.961 353.616C323.01 352.076 325.779 348.676 323.81 345.916C318.202 338.086 276.035 337.226 264.329 337.346C236.938 337.646 200.89 334.836 173.538 335.176Z" fill="#7DA39C"/>
<path d="M158.493 323.086C158.074 324.596 157.714 326.276 158.493 327.656C159.423 329.296 161.732 329.856 163.642 329.396C165.551 328.936 167.58 328.066 168.52 326.396C172.469 319.396 182.206 302.045 187.724 289.945C189.273 286.545 192.772 284.945 190.083 282.265C183.445 275.635 172.479 286.115 170.42 291.835C166.641 302.345 161.442 312.236 158.493 323.086Z" fill="url(#paint0_linear_3_81)"/>
<path d="M262.75 335.346C264.489 336.566 265.669 330.646 267.618 329.776C270.977 328.276 265.269 290.775 263.07 286.665C258.761 278.665 245.885 276.665 246.425 289.085C246.585 293.915 260.96 334.116 262.75 335.346Z" fill="url(#paint1_linear_3_81)"/>
<path d="M220.763 162.033C215.965 163.923 212.226 167.803 209.107 171.903C192.762 193.394 189.663 222.824 173.039 244.104C168.77 249.574 163.572 254.575 161.192 261.105C156.734 273.325 165.441 288.525 178.247 290.845C182.605 291.645 187.314 291.165 191.243 293.145C195.171 295.125 197.581 299.025 200.92 301.815C210.616 309.935 226.051 306.605 235.558 298.255C239.207 295.045 242.556 291.065 247.205 289.685C253.203 287.905 259.811 290.995 265.949 289.605C272.876 288.045 277.485 280.965 278.235 273.905C278.984 266.845 276.655 259.845 273.956 253.285C266.059 234.084 254.592 215.814 252.273 195.184C251.273 186.183 253.273 171.433 247.015 163.873C241.946 157.633 227.391 159.433 220.763 162.033Z" fill="#7DA39C"/>
<path d="M249.194 180.063C248.514 182.963 246.915 186.063 244.006 186.783C241.367 187.413 238.498 185.783 235.958 186.723C232.37 188.053 232.12 193.304 229.071 195.624C227.411 196.884 225.212 197.064 223.212 197.624C218.154 199.064 214.275 203.024 210.637 206.824C209.227 201.824 212.726 196.974 214.695 192.184C217.016 186.485 217.253 180.15 215.365 174.293C214.815 172.906 214.413 171.465 214.165 169.993C214.052 169.253 214.121 168.496 214.367 167.788C214.613 167.081 215.027 166.444 215.575 165.933C216.333 165.409 217.202 165.067 218.114 164.933C222.395 164.051 226.805 163.987 231.11 164.743C233.97 165.43 236.862 165.971 239.777 166.363C243.316 166.643 245.415 165.203 248.444 164.083C250.084 169.253 250.343 174.762 249.194 180.063Z" fill="url(#paint2_linear_3_81)"/>
<path d="M153.355 324.376C152.371 325.764 151.511 327.236 150.786 328.776C150.272 329.687 150.045 330.733 150.136 331.776C150.492 333.015 151.265 334.093 152.325 334.826C155.163 337.161 158.212 339.226 161.432 340.996C165.611 343.366 170.12 345.496 174.988 345.876C177.455 346.205 179.96 345.668 182.076 344.356C184.075 342.946 185.075 340.216 183.955 338.136C182.835 336.056 179.896 335.326 177.627 334.136C171.359 330.986 160.783 313.836 153.355 324.376Z" fill="#3E3E54"/>
<path d="M261.66 331.116C260.968 331.489 260.383 332.033 259.96 332.696C259.614 333.425 259.452 334.229 259.491 335.036C259.484 337.408 259.985 339.754 260.96 341.916C261.233 342.638 261.7 343.272 262.31 343.746C262.892 344.082 263.54 344.287 264.209 344.346C270.117 345.246 276.145 344.796 282.103 344.346C284.542 344.156 287.252 343.836 288.791 341.946C289.45 341.009 289.804 339.891 289.804 338.746C289.804 337.6 289.45 336.483 288.791 335.546C287.426 333.687 285.408 332.415 283.143 331.986C281.054 331.516 278.714 332.066 276.715 331.526C275.146 331.106 273.766 329.876 272.077 329.476C268.523 328.643 264.786 329.231 261.66 331.116Z" fill="#3E3E54"/>
<path d="M176.388 160.323C175.338 165.473 174.998 170.783 173.448 175.803C171.789 181.183 168.74 186.263 168.6 191.883C168.483 192.826 168.73 193.777 169.29 194.544C171.789 197.304 179.057 191.854 180.426 189.713C181.986 187.303 182.626 184.433 183.235 181.623L187.554 161.883C188.274 158.573 189.053 155.003 191.153 152.253C193.152 149.703 212.486 127.612 211.456 124.032C209.757 118.032 184.865 139.543 182.146 143.223C179.007 147.453 177.407 155.323 176.388 160.323Z" fill="url(#paint3_linear_3_81)"/>
<path d="M212.486 110.542C210.586 118.172 211.486 126.182 212.076 134.033C212.776 142.826 213.149 151.633 213.196 160.453C213.196 165.453 213.306 170.963 216.585 174.753C221.083 179.953 229.28 179.393 235.908 177.533C238.325 176.991 240.609 175.971 242.626 174.533C246.985 171.063 247.904 164.913 248.384 159.353C249.714 143.653 250.024 127.883 249.314 112.142C248.854 102.082 245.125 88.2518 232.169 89.2018C223.052 89.8418 214.465 102.662 212.486 110.542Z" fill="#7DA39C"/>
<path d="M248.374 159.323C247.904 164.873 246.995 171.033 242.626 174.503C240.606 175.942 238.319 176.963 235.898 177.503C229.28 179.363 221.083 179.923 216.584 174.713C213.306 170.933 213.216 165.433 213.196 160.423C213.196 155.053 213.026 149.693 212.746 144.323C212.579 140.869 212.359 137.429 212.086 134.003C211.456 126.162 210.586 118.142 212.496 110.522C213.935 104.722 218.964 96.2719 225.132 91.9319C227.167 90.3818 229.586 89.4171 232.129 89.1418C245.125 88.1418 248.814 102.022 249.274 112.092C250 127.839 249.7 143.616 248.374 159.323Z" fill="url(#paint4_linear_3_81)"/>
<path d="M232.469 95.982C230.942 99.6185 229.014 103.073 226.721 106.282C225.586 107.698 224.67 109.275 224.002 110.962C223.516 112.982 223.404 115.073 223.672 117.132C224.242 126.132 223.142 136.233 216.455 142.333C215.426 143.329 214.143 144.021 212.746 144.333C212.579 140.879 212.359 137.439 212.086 134.013C211.456 126.172 210.586 118.152 212.496 110.532C213.935 104.732 218.964 96.282 225.132 91.9419C226.131 91.8419 227.131 91.7819 228.071 91.7719C232.329 91.7719 234.299 91.5119 232.469 95.982Z" fill="url(#paint5_linear_3_81)"/>
<path d="M253.593 44.5611C254.392 50.0412 255.162 59.4714 255.732 64.9715C256.002 67.6215 256.222 70.4616 254.952 72.8116C253.976 74.4697 252.509 75.7836 250.753 76.5717C248.992 77.3456 247.166 77.9614 245.295 78.4117C243.706 78.8617 241.986 79.4117 241.087 80.8417C240.525 81.9103 240.246 83.1049 240.277 84.3118L239.957 89.6119C239.867 91.1319 238.347 92.6119 236.958 93.1819C235.51 93.6772 233.938 93.6772 232.489 93.1819C231.198 92.8377 230.026 92.146 229.1 91.1819C228.017 89.7813 227.377 88.089 227.261 86.3218C226.829 82.2148 227.035 78.0657 227.871 74.0216C228.208 72.0378 228.682 70.0797 229.29 68.1615C229.87 66.4015 230.62 64.6915 231.37 62.9814C232.161 61.0302 233.143 59.1612 234.299 57.4013C235.78 55.456 237.477 53.6847 239.357 52.1212C241.189 50.2928 243.289 48.755 245.585 47.5612C248.184 46.3412 251.443 42.5811 253.593 44.5611Z" fill="url(#paint6_linear_3_81)"/>
<path d="M266.428 33.031C259.921 39.5711 252.233 44.8012 244.605 50.0312C241.057 52.4413 237.498 54.8613 233.759 56.9614C222.969 62.9545 210.955 66.4087 198.63 67.0615C198.061 65.7215 199.92 64.4215 201.229 63.7815L213.506 57.7814C214.062 57.5756 214.558 57.2315 214.945 56.7814C215.37 55.983 215.467 55.0501 215.215 54.1813C214.395 49.1112 212.976 43.6411 215.215 39.0311C217.024 35.351 220.773 33.111 224.362 31.1309C227.361 29.4609 230.76 27.7909 234.129 28.5009C237.498 29.2109 239.867 32.071 241.846 34.861C242.275 35.5945 242.88 36.2096 243.606 36.651C244.136 36.8784 244.708 36.9941 245.285 36.991C253.113 37.321 259.651 31.4609 266.938 28.6209C267.423 28.3785 267.973 28.2979 268.508 28.3909C269.867 28.7809 269.617 30.9309 268.578 31.9009C267.538 32.871 267.428 32.0209 266.428 33.031Z" fill="#7DA39C"/>
<path d="M268.608 31.8709C267.608 32.8709 267.438 32.0209 266.428 33.0209C259.911 39.571 252.233 44.8011 244.595 50.0212C241.047 52.4312 237.508 54.8412 233.759 56.9513C222.965 62.9372 210.954 66.3941 198.63 67.0614C198.061 65.7114 199.92 64.4014 201.229 63.7714L213.506 57.7713C214.058 57.5568 214.551 57.214 214.945 56.7713C215.375 55.9708 215.472 55.0328 215.215 54.1612C214.395 49.0911 212.976 43.6211 215.215 39.011C217.014 35.3309 220.763 33.0909 224.362 31.1108C227.361 29.4408 230.74 27.7708 234.119 28.4908C237.498 29.2108 239.867 32.0509 241.836 34.8409C242.268 35.5724 242.872 36.187 243.596 36.6309C243.82 36.7329 244.055 36.81 244.296 36.8609C244.625 36.9289 244.959 36.9657 245.295 36.9709C252.353 37.271 258.381 32.5109 264.859 29.5008C265.549 29.1708 266.249 28.8808 266.948 28.6008C267.426 28.3586 267.97 28.2779 268.498 28.3708C269.907 28.7708 269.647 30.8908 268.608 31.8709Z" fill="url(#paint7_linear_3_81)"/>
<path d="M248.344 53.7713C243.02 57.4393 239.357 63.059 238.148 69.4115C237.548 72.6416 237.618 75.9616 237.048 79.1917C236.394 82.7725 234.987 86.1733 232.918 89.1682C230.85 92.163 228.169 94.6834 225.052 96.562C222.633 97.992 219.904 99.072 218.054 101.192C216.205 103.312 215.405 106.512 214.825 109.452C213.006 118.692 211.346 128.452 205.548 135.863C201.443 141.158 195.506 144.726 188.904 145.863C185.626 146.39 182.275 146.242 179.057 145.427C175.839 144.612 172.821 143.147 170.19 141.123C165.851 137.551 162.731 132.718 161.262 127.292C159.063 119.612 160.263 110.292 166.651 105.382C169.634 103.276 173.136 102.028 176.777 101.772C178.957 101.552 181.476 101.402 182.776 99.632C183.318 98.7143 183.659 97.6916 183.775 96.632C184.41 93.4818 185.31 90.3908 186.464 87.3918C187.334 85.1218 188.464 82.7918 190.463 81.3917C192.462 79.9917 195.222 79.8817 197.671 79.2517C201.706 78.1928 205.196 75.6548 207.448 72.1416C210.077 67.9815 213.686 67.2115 217.684 64.3515C219.002 63.3758 220.4 62.5127 221.863 61.7714C223.614 60.9634 225.425 60.2946 227.281 59.7714C234.629 57.4713 242.496 52.0613 248.764 47.5912C248.754 48.7712 248.374 52.5913 248.344 53.7713Z" fill="#3E3E54"/>
<path d="M248.344 53.7713C243.02 57.4393 239.357 63.059 238.148 69.4115C237.548 72.6416 237.618 75.9616 237.048 79.1917C236.394 82.7725 234.987 86.1733 232.918 89.1682C230.85 92.163 228.169 94.6834 225.052 96.562C222.633 97.992 219.904 99.072 218.054 101.192C216.205 103.312 215.405 106.512 214.825 109.452C213.006 118.692 211.346 128.452 205.548 135.863C201.443 141.158 195.506 144.726 188.904 145.863C185.626 146.39 182.275 146.242 179.057 145.427C175.839 144.612 172.821 143.147 170.19 141.123C165.851 137.551 162.731 132.718 161.262 127.292C159.063 119.612 160.263 110.292 166.651 105.382C169.634 103.276 173.136 102.028 176.777 101.772C178.957 101.552 181.476 101.402 182.776 99.632C183.318 98.7143 183.659 97.6916 183.775 96.632C184.41 93.4818 185.31 90.3908 186.464 87.3918C187.334 85.1218 188.464 82.7918 190.463 81.3917C192.462 79.9917 195.222 79.8817 197.671 79.2517C201.706 78.1928 205.196 75.6548 207.448 72.1416C210.077 67.9815 213.686 67.2115 217.684 64.3515C219.002 63.3758 220.4 62.5127 221.863 61.7714C223.614 60.9634 225.425 60.2946 227.281 59.7714C234.629 57.4713 242.496 52.0613 248.764 47.5912C248.754 48.7712 248.374 52.5913 248.344 53.7713Z" fill="url(#paint8_linear_3_81)"/>
<path d="M234.479 93.842C232.479 96.512 232.209 100.112 232.879 103.362C233.712 106.572 234.983 109.651 236.658 112.512L255.342 148.003C261.18 159.073 267.228 170.433 276.685 178.623C279.743 181.261 283.098 183.533 286.682 185.393C287.381 185.732 288.05 186.13 288.681 186.583C290.251 187.813 291.05 189.744 292.14 191.414C293.94 194.054 296.513 196.072 299.506 197.19C302.5 198.307 305.766 198.469 308.855 197.654C309.574 195.054 307.805 192.434 305.856 190.584C303.906 188.734 301.557 187.063 300.617 184.533C300.667 184.738 300.757 184.931 300.881 185.102C301.006 185.272 301.163 185.416 301.343 185.525C301.523 185.635 301.723 185.708 301.931 185.74C302.139 185.772 302.352 185.763 302.557 185.713C302.761 185.664 302.954 185.574 303.125 185.449C303.295 185.325 303.439 185.168 303.548 184.988C303.658 184.808 303.731 184.608 303.763 184.399C303.795 184.191 303.786 183.978 303.736 183.773C303.534 183.237 303.188 182.767 302.737 182.413C301.43 181.029 299.96 179.81 298.358 178.783C296.649 177.783 294.719 177.243 293.02 176.253C291.019 174.98 289.253 173.369 287.801 171.493C283.941 166.908 280.57 161.93 277.745 156.643C275.245 151.993 273.166 147.093 270.287 142.643C267.718 138.643 264.509 135.103 262.41 130.863C258.651 123.312 258.751 114.452 256.172 106.422C254.652 101.672 251.613 94.602 247.295 91.7019C243.406 89.1319 237.228 90.1019 234.479 93.842Z" fill="url(#paint9_linear_3_81)"/>
<path d="M257.171 55.5413C257.409 55.5318 257.644 55.5984 257.841 55.7313C257.991 55.8882 258.088 56.0872 258.121 56.3013C258.433 57.5388 258.538 58.8196 258.431 60.0914C258.341 61.2514 257.761 62.6614 256.602 62.6514C256.126 62.6153 255.676 62.4218 255.322 62.1014C253.922 60.9814 253.323 58.9214 252.553 57.3013C252.553 57.2513 243.706 58.7014 242.966 58.8314C241.267 59.1114 240.457 59.4814 241.676 58.3514C245.205 55.0513 252.583 55.2813 257.171 55.5413Z" fill="#3E3E54"/>
<path d="M170.599 192.343L161.292 205.694L166.291 209.304L175.588 197.024C174.888 195.254 171.869 192.313 170.599 192.343Z" fill="#7DA39C"/>
<path d="M170.599 192.343L161.292 205.694L166.291 209.304L175.588 197.024C174.888 195.254 171.869 192.313 170.599 192.343Z" fill="#3E3E54"/>
<path d="M134.631 248.774L120.416 241.204C116.682 239.206 112.327 238.709 108.239 239.815C104.151 240.92 100.64 243.546 98.4226 247.154L65.5533 300.455C64.1073 302.806 63.6448 305.632 64.266 308.321C64.8871 311.011 66.5419 313.347 68.8722 314.826L85.5268 325.256L134.631 248.774Z" fill="#3E3E54"/>
<path d="M82.2078 335.396C85.2831 335.396 87.776 332.902 87.776 329.826C87.776 326.75 85.2831 324.256 82.2078 324.256C79.1326 324.256 76.6396 326.75 76.6396 329.826C76.6396 332.902 79.1326 335.396 82.2078 335.396Z" fill="#3E3E54"/>
<path d="M82.1979 332.066C83.6002 332.066 84.7371 330.929 84.7371 329.526C84.7371 328.123 83.6002 326.986 82.1979 326.986C80.7955 326.986 79.6587 328.123 79.6587 329.526C79.6587 330.929 80.7955 332.066 82.1979 332.066Z" fill="#7DA39C"/>
<path d="M175.408 196.814C178.063 196.814 180.216 194.66 180.216 192.004C180.216 189.347 178.063 187.193 175.408 187.193C172.752 187.193 170.599 189.347 170.599 192.004C170.599 194.66 172.752 196.814 175.408 196.814Z" fill="#7DA39C"/>
<path d="M264.889 29.4909C264.766 29.9969 264.53 30.4687 264.199 30.8709C261.946 33.55 259.393 35.9624 256.592 38.061C251.673 42.0611 246.735 46.0611 241.596 49.7612C233.449 55.6013 224.102 60.8314 214.085 60.4114C215.179 58.9893 216.379 57.6521 217.674 56.4113C218.536 55.5288 219.523 54.7775 220.603 54.1813C221.718 53.6859 222.872 53.2813 224.052 52.9712C229.5 51.2712 234.259 47.8712 238.687 44.2511C240.077 44.2511 242.776 40.251 243.316 39.131C243.856 38.011 244.016 37.351 244.316 36.811C244.645 36.8789 244.979 36.9157 245.315 36.921C252.383 37.261 258.411 32.5009 264.889 29.4909Z" fill="url(#paint10_linear_3_81)"/>
<path d="M205.848 217.774C208.567 211.774 211.636 205.874 213.476 199.534C215.315 193.193 215.855 186.253 213.476 180.093C205.098 191.743 201.939 206.214 197.781 219.944C193.622 233.674 187.674 247.864 175.888 256.055C171.289 259.245 165.591 261.805 163.552 267.055C161.512 272.305 164.091 278.265 168.27 281.895C172.449 285.525 177.917 287.225 183.265 288.675C188.614 290.125 194.112 291.475 198.69 294.575C202.579 297.215 205.758 301.085 210.227 302.575C217.514 304.975 225.062 300.175 231.15 295.475C234.799 292.655 238.807 288.805 237.968 284.275C234.714 286.117 230.934 286.808 227.239 286.236C223.544 285.665 220.15 283.864 217.604 281.125C212.606 275.415 212.226 267.125 211.786 259.505C211.234 249.924 210.119 240.384 208.447 230.934C203.269 238.154 202.689 247.574 202.289 256.455L201.609 271.775C201.439 275.475 202.349 282.585 199.61 285.505C194.132 291.415 190.503 279.945 190.443 275.755C190.243 256.595 198.07 234.884 205.848 217.774Z" fill="url(#paint11_linear_3_81)"/>
<path d="M226.851 234.454C229.04 245.704 233.369 256.515 234.849 267.885C235.508 272.985 236.108 279.015 240.567 281.575C241.939 282.268 243.409 282.75 244.925 283.005C251.533 284.435 258.751 285.795 264.799 282.765C271.887 279.205 275.026 269.425 271.317 262.405L268.238 270.465C267.868 271.415 267.398 272.465 266.428 272.795C264.789 273.345 263.479 271.405 262.83 269.795L255.832 252.504C252.683 257.725 256.682 264.245 256.911 270.345C257.016 271.383 256.803 272.429 256.302 273.345C255.162 275.155 252.423 275.345 250.574 274.245C248.724 273.145 247.575 271.245 246.575 269.365C234.84 247.703 230.088 222.942 232.969 198.474C233.339 195.474 233.819 192.364 233.349 189.343C232.909 186.553 231.35 183.153 228.581 182.133C228.191 185.883 228.901 189.683 228.321 193.454C227.681 197.524 226.531 201.454 226.001 205.584C224.743 215.191 225.03 224.938 226.851 234.454Z" fill="url(#paint12_linear_3_81)"/>
<defs>
<linearGradient id="paint0_linear_3_81" x1="158.034" y1="304.845" x2="191.063" y2="304.845" gradientUnits="userSpaceOnUse">
<stop stop-color="#E5C5D5"/>
<stop offset="0.42" stop-color="#EAD4D1"/>
<stop offset="1" stop-color="#F0E9CB"/>
</linearGradient>
<linearGradient id="paint1_linear_3_81" x1="246.355" y1="307.845" x2="268.598" y2="307.845" gradientUnits="userSpaceOnUse">
<stop stop-color="#E5C5D5"/>
<stop offset="0.42" stop-color="#EAD4D1"/>
<stop offset="1" stop-color="#F0E9CB"/>
</linearGradient>
<linearGradient id="paint2_linear_3_81" x1="208.077" y1="165.713" x2="316.396" y2="265.398" gradientUnits="userSpaceOnUse">
<stop stop-opacity="0"/>
<stop offset="0.99"/>
</linearGradient>
<linearGradient id="paint3_linear_3_81" x1="168.59" y1="159.153" x2="211.496" y2="159.153" gradientUnits="userSpaceOnUse">
<stop stop-color="#E5C5D5"/>
<stop offset="0.42" stop-color="#EAD4D1"/>
<stop offset="1" stop-color="#F0E9CB"/>
</linearGradient>
<linearGradient id="paint4_linear_3_81" x1="221.923" y1="133.993" x2="260.28" y2="133.993" gradientUnits="userSpaceOnUse">
<stop offset="0.02" stop-color="white" stop-opacity="0"/>
<stop offset="0.58" stop-color="white" stop-opacity="0.39"/>
<stop offset="0.68" stop-color="white" stop-opacity="0.68"/>
<stop offset="1" stop-color="white"/>
</linearGradient>
<linearGradient id="paint5_linear_3_81" x1="241.366" y1="158.273" x2="185.263" y2="37.7256" gradientUnits="userSpaceOnUse">
<stop stop-opacity="0"/>
<stop offset="0.99"/>
</linearGradient>
<linearGradient id="paint6_linear_3_81" x1="226.951" y1="68.7815" x2="255.942" y2="68.7815" gradientUnits="userSpaceOnUse">
<stop stop-color="#E5C5D5"/>
<stop offset="0.42" stop-color="#EAD4D1"/>
<stop offset="1" stop-color="#F0E9CB"/>
</linearGradient>
<linearGradient id="paint7_linear_3_81" x1="247.714" y1="66.8114" x2="210.96" y2="16.5425" gradientUnits="userSpaceOnUse">
<stop offset="0.02" stop-color="white" stop-opacity="0"/>
<stop offset="0.58" stop-color="white" stop-opacity="0.39"/>
<stop offset="0.68" stop-color="white" stop-opacity="0.68"/>
<stop offset="1" stop-color="white"/>
</linearGradient>
<linearGradient id="paint8_linear_3_81" x1="141.859" y1="96.882" x2="230.42" y2="96.882" gradientUnits="userSpaceOnUse">
<stop stop-opacity="0"/>
<stop offset="0.99"/>
</linearGradient>
<linearGradient id="paint9_linear_3_81" x1="232.559" y1="144.223" x2="309.025" y2="144.223" gradientUnits="userSpaceOnUse">
<stop stop-color="#E5C5D5"/>
<stop offset="0.42" stop-color="#EAD4D1"/>
<stop offset="1" stop-color="#F0E9CB"/>
</linearGradient>
<linearGradient id="paint10_linear_3_81" x1="232.459" y1="30.5009" x2="252.444" y2="71.6062" gradientUnits="userSpaceOnUse">
<stop stop-opacity="0"/>
<stop offset="0.99"/>
</linearGradient>
<linearGradient id="paint11_linear_3_81" x1="266.878" y1="189.443" x2="35.4076" y2="442.109" gradientUnits="userSpaceOnUse">
<stop stop-opacity="0"/>
<stop offset="0.99"/>
</linearGradient>
<linearGradient id="paint12_linear_3_81" x1="229.7" y1="198.054" x2="325.788" y2="479.788" gradientUnits="userSpaceOnUse">
<stop stop-opacity="0"/>
<stop offset="0.99"/>
</linearGradient>
</defs>
</svg>
