<svg width="272" height="307" viewBox="0 0 272 307" fill="none" xmlns="http://www.w3.org/2000/svg">
<path opacity="0.18" d="M270.239 109.821C272.189 117.542 272.425 125.596 270.931 133.419C269.438 141.241 266.25 148.642 261.593 155.101C254.638 164.567 244.724 171.645 238.55 181.613C225.206 203.133 232.369 232.519 220.129 254.688C209.898 273.233 188.703 282.343 169.022 290.163C153.568 296.298 137.959 302.472 121.578 304.945C105.196 307.417 87.5788 305.849 73.3841 297.326C61.6776 290.317 53.0774 279.206 45.1339 268.11C25.6076 240.81 7.95895 211.084 1.96274 178.058C-4.03348 145.033 3.44633 107.989 28.0339 85.1403C40.0031 74.0133 55.6814 66.3403 64.1271 52.3466C72.99 37.6651 73.1137 17.1806 86.8911 6.94997C91.9755 3.17143 98.2962 1.41738 104.571 0.582859C119.676 -1.36152 135.007 1.58772 148.314 8.99765C161.813 16.5625 172.893 28.5858 187.598 33.4229C206.63 39.6896 231.055 34.8756 243.704 53.4206C253.865 68.3339 265.727 92.4501 270.239 109.821Z" fill="#4D6461"/>
<path d="M189.259 99.2654C189.039 99.7315 188.738 100.155 188.371 100.517C185.426 103.628 181.614 105.782 177.429 106.699C175.952 107.039 174.441 107.21 172.924 107.209C172.036 101.475 171.132 95.7341 170.436 89.9774C169.888 85.4803 169.478 80.9908 169.285 76.4782C169.154 73.6501 163.026 63.7904 164.278 61.1477C165.661 58.2423 175.621 68.1871 176.742 70.0802C182.962 80.5118 185.195 88.5788 189.46 97.55C189.622 98.1259 189.55 98.7423 189.259 99.2654V99.2654Z" fill="#4D6461"/>
<path d="M178.434 105.648C178.135 106.036 177.799 106.393 177.429 106.714C175.952 107.055 174.441 107.226 172.924 107.224C172.036 101.491 171.132 95.7496 170.436 89.9929C170.699 85.47 171.176 80.9651 171.866 76.4782C171.572 78.3559 173.883 82.4513 174.508 84.2903L177.221 92.3033C178.635 96.4836 181.656 101.568 178.434 105.648Z" fill="url(#paint0_linear_81_36)"/>
<path d="M175.103 115.454C175.722 119.224 176.51 123.042 178.372 126.38C179.33 128.095 180.76 129.78 182.699 130.081C183.778 130.183 184.865 130.021 185.867 129.61C187.944 128.895 189.903 127.874 191.678 126.581C193.374 125.28 194.973 123.857 196.461 122.323C198.675 120.233 200.724 117.976 202.589 115.57C203.446 114.41 204.227 113.19 205.162 112.085C209.025 107.487 215.207 105.424 219.588 101.321C220.77 100.224 223.166 95.2009 222.988 93.5937C221.381 92.6665 218.081 96.3986 216.304 96.9395C214.527 97.4804 212.866 98.3613 211.081 98.8636C208.943 99.4595 206.688 99.4888 204.536 98.9486C203.81 98.7631 202.944 87.3039 202.218 87.5666C201.852 87.7198 201.525 87.952 201.26 88.2466C199.761 89.792 198.941 102.982 197.697 104.698C195.99 107.016 193.625 108.777 191.284 110.462C191.075 110.609 190.813 110.763 190.581 110.647C190.504 110.591 190.44 110.519 190.392 110.436C190.345 110.354 190.314 110.263 190.303 110.168C189.692 107.904 189.004 105.656 188.255 103.438C187.729 101.893 186.988 100.193 185.435 99.729C184.051 99.3195 182.614 100.1 181.378 100.849C179.786 101.823 178.179 102.781 176.595 103.763C175.714 104.303 174.648 104.829 174.23 105.826C173.72 107.023 174.153 108.677 174.3 109.906C174.532 111.768 174.802 113.615 175.103 115.454Z" fill="#F5BCBA"/>
<path d="M189.205 220.55C189.205 222.914 189.089 225.24 188.881 227.55C187.078 247.322 177.75 265.646 162.823 278.737C147.896 291.827 128.511 298.684 108.673 297.89C88.8349 297.097 70.0596 288.714 56.2259 274.473C42.3922 260.232 34.5571 241.221 34.3393 221.369C34.3393 221.106 34.3393 220.851 34.3393 220.596C34.2371 210.362 36.1645 200.209 40.0103 190.724C43.856 181.239 49.5437 172.611 56.7445 165.338C63.9454 158.065 72.5165 152.291 81.9623 148.351C91.4082 144.41 101.541 142.382 111.776 142.382C122.011 142.382 132.144 144.41 141.59 148.351C151.036 152.291 159.607 158.065 166.808 165.338C174.009 172.611 179.696 181.239 183.542 190.724C187.388 200.209 189.315 210.362 189.213 220.596L189.205 220.55Z" fill="#4D6461"/>
<path d="M189.205 220.55C189.205 222.914 189.089 225.24 188.881 227.55C171.062 239.674 144.837 247.324 115.59 247.324C81.5904 247.324 51.7175 236.993 34.3393 221.33C34.3393 221.067 34.3393 220.812 34.3393 220.557C34.2371 210.323 36.1645 200.17 40.0103 190.685C43.856 181.201 49.5437 172.572 56.7445 165.299C63.9454 158.026 72.5165 152.252 81.9623 148.312C91.4082 144.372 101.541 142.343 111.776 142.343C122.011 142.343 132.144 144.372 141.59 148.312C151.036 152.252 159.607 158.026 166.808 165.299C174.009 172.572 179.696 181.201 183.542 190.685C187.388 200.17 189.315 210.323 189.213 220.557L189.205 220.55Z" fill="url(#paint1_linear_81_36)"/>
<path d="M147.278 190.275C150.369 191.388 153.73 192.183 156.265 194.293C158.513 196.155 159.881 198.852 160.986 201.549C164.67 210.599 165.999 220.435 164.85 230.139C164.54 232.72 164.077 235.378 164.749 237.866C165.421 240.354 167.716 242.688 170.297 242.379C173.875 235.27 173.952 226.971 173.96 219.012C173.96 213.201 173.96 207.267 172.013 201.788C170.421 197.276 167.608 193.288 164.703 189.494C154.109 175.586 141.29 162.612 124.97 156.361C124.293 156.015 123.516 155.919 122.776 156.09C119.414 157.319 119.963 163.3 121.269 165.703C123.123 169.023 125.188 172.22 127.451 175.277C132.414 182.144 139.32 187.367 147.278 190.275V190.275Z" fill="url(#paint2_linear_81_36)"/>
<path d="M116.718 172.812C116.764 171.772 116.898 170.738 117.119 169.721C117.238 169.216 117.494 168.754 117.858 168.385C118.221 168.015 118.68 167.753 119.183 167.627C119.607 167.615 120.03 167.577 120.45 167.511C121.308 167.248 121.671 166.251 121.918 165.394L124.661 155.812C125.187 153.958 125.72 152.01 125.318 150.133C124.684 147.196 121.988 145.211 119.36 143.773C117.452 142.722 115.304 141.787 113.179 142.182C109.887 142.792 107.978 146.192 106.75 149.306C105.32 152.643 104.44 156.189 104.146 159.807C103.929 163.987 103.574 174.226 106.162 177.881C109.748 183.011 116.146 177.448 116.718 172.812Z" fill="url(#paint3_linear_81_36)"/>
<path d="M158.397 160.719C165.406 163.091 172.878 164.088 179.631 167.109C179.849 167.175 180.051 167.285 180.224 167.433C180.396 167.58 180.537 167.762 180.636 167.967C180.695 168.301 180.652 168.646 180.512 168.956C174.809 185.918 171.592 203.616 170.962 221.5C175.003 222.227 179.132 222.318 183.201 221.77C183.659 221.742 184.102 221.601 184.492 221.361C184.867 221.033 185.149 220.612 185.311 220.14C191.848 205.464 197.715 190.512 202.913 175.284C203.833 172.588 204.744 169.767 204.374 166.939C203.84 162.821 200.742 159.575 197.798 156.647L174.856 133.759C174.273 133.101 173.556 132.574 172.754 132.214C171.832 131.939 170.856 131.891 169.911 132.075C160.862 133.195 148.507 133.543 131.878 132.847C129.722 132.755 140.378 145.033 141.267 147.39C141.977 149.26 144.226 151.67 145.601 153.123C149.048 156.739 153.699 159.127 158.397 160.719Z" fill="#525263"/>
<path d="M158.397 160.719C165.406 163.091 172.878 164.088 179.631 167.109C179.849 167.175 180.051 167.285 180.224 167.433C180.396 167.58 180.537 167.762 180.636 167.967C180.695 168.301 180.652 168.646 180.512 168.956C174.809 185.918 171.592 203.616 170.962 221.5C175.003 222.227 179.132 222.318 183.201 221.77C183.659 221.742 184.102 221.601 184.492 221.361C184.867 221.033 185.149 220.612 185.311 220.14C191.848 205.464 197.715 190.512 202.913 175.284C203.833 172.588 204.744 169.767 204.374 166.939C203.84 162.821 200.742 159.575 197.798 156.647L174.856 133.759C174.273 133.101 173.556 132.574 172.754 132.214C171.832 131.939 170.856 131.891 169.911 132.075C160.862 133.195 148.507 133.543 131.878 132.847C129.722 132.755 140.378 145.033 141.267 147.39C141.977 149.26 144.226 151.67 145.601 153.123C149.048 156.739 153.699 159.127 158.397 160.719Z" fill="url(#paint4_linear_81_36)"/>
<path d="M169.787 231.646C169.224 232.522 168.843 233.502 168.667 234.528C168.255 236.324 167.95 238.143 167.755 239.975C167.6 241.397 167.546 242.943 168.358 244.109C169.169 245.276 170.506 245.701 171.758 246.188C174.909 247.485 177.97 248.99 180.922 250.693C182.916 251.79 184.994 252.926 187.266 253.011C189.538 253.096 192.049 251.852 192.567 249.642C192.746 248.578 192.656 247.486 192.304 246.466C191.064 242.033 188.632 238.024 185.272 234.876C184.683 234.301 184.027 233.8 183.317 233.384C182.636 233.033 181.925 232.743 181.192 232.519C179.129 231.764 177.014 231.157 174.864 230.703C172.986 230.402 171.085 229.845 169.787 231.646Z" fill="#2E2E3F"/>
<path d="M169.787 231.646C169.224 232.522 168.843 233.502 168.667 234.528C168.255 236.324 167.95 238.143 167.755 239.975C167.6 241.397 167.546 242.943 168.358 244.109C169.169 245.276 170.506 245.701 171.758 246.188C174.909 247.485 177.97 248.99 180.922 250.693C182.916 251.79 184.994 252.926 187.266 253.011C189.538 253.096 192.049 251.852 192.567 249.642C192.746 248.578 192.656 247.486 192.304 246.466C191.064 242.033 188.632 238.024 185.272 234.876C184.683 234.301 184.027 233.8 183.317 233.384C182.636 233.033 181.925 232.743 181.192 232.519C179.129 231.764 177.014 231.157 174.864 230.703C172.986 230.402 171.085 229.845 169.787 231.646Z" fill="url(#paint5_linear_81_36)"/>
<path d="M172.082 222.08C171.496 225.136 171.191 228.24 171.17 231.352C171.17 232.72 171.263 234.234 172.244 235.216C173.173 235.954 174.357 236.293 175.536 236.158C176.958 236.106 178.36 235.816 179.686 235.301C179.98 235.209 180.246 235.044 180.458 234.821C180.615 234.602 180.723 234.352 180.775 234.087C181.954 229.664 182.58 225.112 182.637 220.534C182.713 219.817 182.564 219.093 182.212 218.463C181.478 217.436 179.956 217.482 178.72 217.729C177.137 218.068 175.586 218.541 174.084 219.143C172.662 219.638 172.368 220.611 172.082 222.08Z" fill="#F5BCBA"/>
<path d="M187.32 236.606C187.879 237.979 188.333 239.392 188.68 240.833C188.919 241.954 189.059 243.151 189.777 244.048C190.689 245.168 192.273 245.454 193.718 245.477C194.909 245.545 196.1 245.344 197.203 244.89C197.777 244.665 198.257 244.25 198.563 243.715C198.778 243.187 198.852 242.612 198.779 242.046C198.666 238.121 197.687 234.268 195.912 230.765C194.895 228.954 193.748 227.219 192.482 225.572C192.082 224.832 191.408 224.277 190.604 224.027C190.191 224.012 189.779 224.08 189.393 224.228C189.007 224.375 188.654 224.598 188.355 224.885C187.08 225.843 184.275 227.442 184.569 229.258C184.94 231.677 186.455 234.312 187.32 236.606Z" fill="#F5BCBA"/>
<path d="M196.685 239.458C195.811 239.947 194.962 240.481 194.143 241.057C192.868 241.76 191.369 241.9 189.97 242.301C189.601 242.372 189.262 242.553 188.997 242.819C188.804 243.079 188.684 243.386 188.649 243.708C188.386 245.817 188.473 247.955 188.904 250.036C189.615 254.538 190.444 259.023 191.392 263.489C191.786 265.328 192.258 267.268 193.594 268.589C194.931 269.91 196.963 270.366 198.864 270.42C200.643 270.522 202.419 270.191 204.041 269.454C205.331 268.764 206.449 267.791 207.311 266.608C208.172 265.425 208.756 264.063 209.018 262.624C209.521 259.729 209.166 256.75 207.998 254.054C207.204 252.211 206.28 250.426 205.231 248.715C203.84 246.325 202.455 243.934 201.074 241.544C200.023 239.721 199.065 238.446 196.685 239.458Z" fill="#2E2E3F"/>
<path d="M196.685 239.458C195.811 239.947 194.962 240.481 194.143 241.057C192.868 241.76 191.369 241.9 189.97 242.301C189.601 242.372 189.262 242.553 188.997 242.819C188.804 243.079 188.684 243.386 188.649 243.708C188.386 245.817 188.473 247.955 188.904 250.036C189.615 254.538 190.444 259.023 191.392 263.489C191.786 265.328 192.258 267.268 193.594 268.589C194.931 269.91 196.963 270.366 198.864 270.42C200.643 270.522 202.419 270.191 204.041 269.454C205.331 268.764 206.449 267.791 207.311 266.608C208.172 265.425 208.756 264.063 209.018 262.624C209.521 259.729 209.166 256.75 207.998 254.054C207.204 252.211 206.28 250.426 205.231 248.715C203.84 246.325 202.455 243.934 201.074 241.544C200.023 239.721 199.065 238.446 196.685 239.458Z" fill="url(#paint6_linear_81_36)"/>
<path d="M103.064 98.0213C102.388 99.7225 101.936 101.504 101.719 103.322C100.984 108.029 100.515 112.773 100.313 117.532C99.9268 126.619 100.514 135.722 100.259 144.809C99.9963 154.259 98.8836 164.057 102.284 172.874C102.813 174.473 103.707 175.928 104.895 177.123C105.497 177.711 106.238 178.136 107.049 178.358C107.86 178.58 108.715 178.591 109.532 178.391C110.271 178.106 110.934 177.655 111.47 177.072C112.006 176.489 112.401 175.79 112.622 175.029C113.048 173.507 113.236 171.927 113.179 170.347L113.302 161.708C113.302 161.53 113.302 161.322 113.48 161.244C113.554 161.218 113.634 161.213 113.712 161.228C113.789 161.243 113.861 161.278 113.921 161.329C114.585 161.904 115.217 162.515 115.814 163.161C116.501 163.717 117.599 163.987 118.209 163.346C118.378 163.121 118.498 162.863 118.56 162.589C118.623 162.315 118.627 162.03 118.572 161.754C118.201 158.014 114.94 155.318 113.001 152.095C110.204 147.459 110.204 141.617 110.907 136.224C111.78 129.471 113.604 122.879 115.42 116.311L116.965 110.756C118.132 106.537 119.283 101.931 117.583 97.8899C116.901 96.3378 115.861 94.9688 114.549 93.8946C113.237 92.8203 111.69 92.0712 110.034 91.7083C106.804 91.1133 104.231 95.3941 103.064 98.0213Z" fill="#F5BCBA"/>
<path d="M174.802 133.156C173.805 135.838 168.18 132.708 164.965 134.315C158.83 137.406 151.829 134.23 144.991 134.315C137.712 134.447 132.689 141.617 125.465 142.529C124.94 142.638 124.398 142.638 123.873 142.529C122.876 142.236 122.289 141.239 121.864 140.304C121.24 138.862 120.794 137.349 120.535 135.799C119.638 130.668 120.535 125.167 121.493 119.951C122.297 115.531 123.098 111.108 123.896 106.683C124.823 101.532 125.758 96.3497 126.701 91.1365C127.251 87.6974 128.025 84.2979 129.019 80.9599C129.205 80.3804 129.398 79.8163 129.606 79.26C131.404 74.7284 133.572 70.3529 136.089 66.178C137.635 63.4967 139.18 60.7691 141.568 58.7369C144.234 56.4883 147.672 55.3679 151.126 54.827C154.233 54.2415 157.435 54.4272 160.453 55.3679C162.176 55.9706 162.825 57.7942 164.193 58.9146C165.927 60.1991 167.474 61.7177 168.79 63.4272C170.128 65.4911 171.083 67.7787 171.611 70.1807C176.456 89.0193 169.447 109.341 174.053 128.234C174.578 130.452 175.598 131.039 174.802 133.156Z" fill="#4D6461"/>
<path d="M168.219 66.9817L168.821 70.9302L166.503 69.6398V80.1022L163.861 68.4807L166.418 64.7563L168.219 66.9817Z" fill="url(#paint7_linear_81_36)"/>
<path d="M148.592 66.7267L150.052 67.4994L152.37 69.5161L146.189 86.0984C146.189 86.0984 155.168 72.2824 155.461 65.2353C155.643 60.9006 155.102 56.5658 153.862 52.4084L148.592 66.7267Z" fill="url(#paint8_linear_81_36)"/>
<path d="M128.795 114.256C128.304 118.052 128.304 121.896 128.795 125.692C129.112 128.08 129.622 130.46 129.46 132.855C129.467 133.323 129.317 133.78 129.035 134.153C128.672 134.448 128.226 134.624 127.76 134.655C125.344 135.037 122.925 135.426 120.504 135.822C119.608 130.691 120.504 125.19 121.462 119.974C122.266 115.554 123.067 111.132 123.865 106.707C124.792 101.555 125.727 96.3729 126.67 91.1597C127.22 87.7205 127.994 84.3211 128.988 80.9831C129.174 80.4036 129.367 79.8395 129.575 79.2832C131.971 77.9541 135.301 76.965 136.785 79.1132C138.33 81.4313 136.298 86.8402 135.695 89.1584C133.501 97.5577 129.9 105.586 128.795 114.256Z" fill="url(#paint9_linear_81_36)"/>
<path d="M184.376 47.2621C184.456 48.223 184.428 49.1899 184.291 50.1443C184.213 50.6202 183.975 51.0553 183.617 51.3783C183.259 51.7013 182.802 51.8929 182.321 51.9216C179.91 51.7439 178.171 54.0542 176.255 55.5378C174.751 56.6644 172.966 57.3549 171.096 57.5335C169.226 57.7121 167.343 57.3718 165.653 56.5501C165.318 56.4294 164.948 56.4423 164.622 56.5861C164.295 56.7299 164.037 56.9936 163.899 57.3228C163.658 58.0045 163.605 58.7384 163.745 59.4477L164.633 67.9012C164.803 69.5316 164.819 71.5252 163.436 72.4061C162.052 73.2869 160.414 72.522 159.271 71.5252C157.473 69.7963 156.173 67.6158 155.508 65.2121C153.997 60.3421 153.78 55.1626 154.879 50.1834C155.977 45.2042 158.354 40.5969 161.774 36.8151C163.058 35.3799 164.563 34.1591 166.233 33.1989C167.98 32.2919 169.857 31.6586 171.796 31.3212C173.532 30.9115 175.327 30.8121 177.097 31.0276C179.475 31.4598 181.636 32.6824 183.232 34.497C184.407 35.7797 185.55 39.6046 186.787 40.2305C185.867 42.5641 184.415 44.6272 184.376 47.2621Z" fill="#F5BCBA"/>
<path d="M165.985 14.0821C164.853 13.8171 163.67 13.8517 162.555 14.1825C160.376 14.9552 159.155 17.2347 158.367 19.406C157.578 21.5773 156.929 23.9495 155.214 25.4872C153.738 26.8163 151.644 27.3495 150.315 28.8176C148.77 30.5253 148.623 33.052 148.77 35.347C148.77 37.0688 149.254 38.7558 150.168 40.215C150.987 41.3277 152.247 42.1004 152.888 43.3059C153.614 44.689 153.862 46.8294 155.423 46.9221C156.073 46.8893 156.688 46.6135 157.146 46.1494C158.723 44.7857 159.912 43.0289 160.592 41.0573C160.971 39.96 161.218 38.7392 162.052 37.9665C162.887 37.1938 164.587 37.1474 164.966 38.2446C165.072 38.9427 164.964 39.6567 164.656 40.2923C164.456 40.9723 164.541 41.8918 165.205 42.1236C166.457 40.1919 167.16 37.9201 168.644 36.166C169.485 35.1796 170.542 34.3988 171.732 33.8835C172.922 33.3683 174.214 33.1322 175.51 33.1934C176.805 33.2545 178.07 33.6113 179.206 34.2364C180.342 34.8615 181.32 35.7383 182.066 36.7997C182.838 37.9046 183.364 39.2182 184.445 40.0064C185.464 40.6273 186.629 40.9685 187.822 40.9955C190.48 41.2582 193.293 41.3586 195.688 40.1764C198.084 38.9942 199.853 36.1274 198.934 33.6161C198.207 31.6457 196.137 30.5253 194.128 29.8917C192.118 29.258 189.97 28.9412 188.201 27.8131C185.798 26.2677 184.515 23.5168 183.116 21.021C181.718 18.5251 179.825 15.9597 177.027 15.3725C175.886 15.1948 174.723 15.1948 173.581 15.3725C172.467 15.6089 171.326 15.6972 170.189 15.6352C168.798 15.3493 167.454 14.4066 165.985 14.0821Z" fill="#2E2E3F"/>
<path d="M165.986 77.5755C167.75 86.5145 168.27 95.6546 167.531 104.736C166.921 112.293 165.468 119.796 165.522 127.376C165.636 129.508 165.571 131.646 165.329 133.767C164.989 135.869 150.895 135.065 148.839 135.042C145.377 134.995 149.766 139.678 147.162 137.422C143.075 133.859 141.251 128.304 140.749 122.91C140.03 115.222 141.607 107.526 143.322 99.9917C144.512 94.7759 145.779 89.5447 147.912 84.638C150.555 78.5723 154.735 70.8529 156.079 64.3699C156.273 63.4195 152.989 59.9655 154.403 60.0118C155.322 60.0118 154.889 61.4413 155.052 62.1522C155.342 63.2347 155.897 64.2279 156.667 65.0421C157.744 66.3006 159.204 67.1718 160.824 67.5225C161.867 67.7157 163.057 67.6694 163.814 68.4112C164.734 69.3075 164.587 71.0538 164.85 72.2747C165.228 74.021 165.63 75.7905 165.986 77.5755Z" fill="#F2F2F2"/>
<path d="M134.699 54.5874C130.959 56.3028 127.744 58.9609 124.707 61.7427C122.194 64.0077 119.82 66.423 117.599 68.9752C115.636 71.2934 113.843 73.6965 111.772 75.8832C108.913 78.8891 105.343 81.7945 104.779 85.9284C104.607 88.0841 104.984 90.2484 105.877 92.2183C106.612 94.2296 107.698 96.0949 109.083 97.7277C110.842 99.6727 113.161 101.023 115.721 101.591C116.523 101.8 117.361 101.837 118.178 101.699C119.329 101.372 120.388 100.779 121.269 99.9685C123.283 98.4443 125.191 96.7842 126.979 95C128.803 93.1069 130.348 90.9511 132.125 89.0116C133.671 87.3425 135.317 85.8357 136.862 84.1976C138.709 82.2349 140.355 80.0945 142.001 77.9541C144.329 75.0509 146.464 71.9972 148.391 68.813C150 66.0028 151.279 63.0157 152.2 59.9114C152.795 57.8869 153.746 55.3215 151.69 53.8611C147.325 50.7857 139.049 52.5552 134.699 54.5874Z" fill="#4D6461"/>
<path d="M134.699 54.5874C130.959 56.3028 127.744 58.9609 124.707 61.7427C122.194 64.0077 119.82 66.423 117.599 68.9752C115.636 71.2934 113.843 73.6965 111.772 75.8832C108.913 78.8891 105.343 81.7945 104.779 85.9284C104.607 88.0841 104.984 90.2484 105.877 92.2183C106.612 94.2296 107.698 96.0949 109.083 97.7277C110.842 99.6727 113.161 101.023 115.721 101.591C116.523 101.8 117.361 101.837 118.178 101.699C119.329 101.372 120.388 100.779 121.269 99.9685C123.283 98.4443 125.191 96.7842 126.979 95C128.803 93.1069 130.348 90.9511 132.125 89.0116C133.671 87.3425 135.317 85.8357 136.862 84.1976C138.709 82.2349 140.355 80.0945 142.001 77.9541C144.329 75.0509 146.464 71.9972 148.391 68.813C150 66.0028 151.279 63.0157 152.2 59.9114C152.795 57.8869 153.746 55.3215 151.69 53.8611C147.325 50.7857 139.049 52.5552 134.699 54.5874Z" fill="#4D6461"/>
<path d="M199.475 89.8692C198.639 90.397 198.042 91.2295 197.81 92.1902C197.577 93.1509 197.728 94.1643 198.231 95.0155C199.528 97.2722 201.268 99.2434 203.346 100.811C204.582 102.14 207.364 102.356 209.837 100.904C212.309 99.4508 224.109 93.0296 230.004 88.8338C230.437 88.5365 230.804 88.1542 231.084 87.7102C231.364 87.2662 231.551 86.7698 231.632 86.2514C231.714 85.733 231.689 85.2033 231.559 84.6948C231.43 84.1862 231.198 83.7094 230.878 83.2935L225.94 77.1118C225.355 76.3802 224.52 75.8905 223.596 75.7365C222.672 75.5824 221.724 75.775 220.933 76.2773L199.475 89.8692Z" fill="#3D3D54"/>
<path d="M121.052 156.469C121.924 159.67 123.471 162.647 125.588 165.201C127.906 167.905 131.059 169.837 134.088 171.676L146.845 179.442C148.716 180.517 150.506 181.729 152.2 183.066C156.381 186.512 159.155 191.318 161.851 196.016L180.458 228.447C181.401 230.108 182.722 231.986 184.631 231.924C185.658 231.79 186.625 231.361 187.413 230.688C189.8 229.011 192.366 227.102 193.077 224.266C193.571 222.288 193.077 220.21 192.482 218.247C189.623 208.58 185.141 199.478 180.644 190.429C173.499 176.109 166.248 161.816 158.892 147.552C156.937 143.766 154.565 137.87 151.335 135.088C151.335 135.088 121.323 133.265 120.566 136.239C118.879 142.901 119.047 149.897 121.052 156.469V156.469Z" fill="#525263"/>
<path d="M121.052 156.469C121.924 159.67 123.471 162.647 125.588 165.201C127.906 167.905 131.059 169.837 134.088 171.676L146.845 179.442C148.716 180.517 150.506 181.729 152.2 183.066C156.381 186.512 159.155 191.318 161.851 196.016L180.458 228.447C181.401 230.108 182.722 231.986 184.631 231.924C185.658 231.79 186.625 231.361 187.413 230.688C189.8 229.011 192.366 227.102 193.077 224.266C193.571 222.288 193.077 220.21 192.482 218.247C189.623 208.58 185.141 199.478 180.644 190.429C173.499 176.109 166.248 161.816 158.892 147.552C156.937 143.766 154.565 137.87 151.335 135.088C151.335 135.088 121.323 133.265 120.566 136.239C118.879 142.901 119.047 149.897 121.052 156.469V156.469Z" fill="url(#paint10_linear_81_36)"/>
<path d="M154.804 50.353L150.562 52.0297L147.989 66.4253L156.543 66.0389L154.804 50.353Z" fill="#4D6461"/>
<path d="M163.783 65.6912C163.783 66.3403 163.783 66.9894 163.783 67.6385C163.783 67.9198 163.799 68.201 163.83 68.4807C163.876 68.7647 163.938 69.0458 164.015 69.323L165.081 73.5265L165.522 66.6958C166.781 67.3062 168.072 67.8625 169.385 68.3493C169.286 67.3257 169.026 66.3242 168.613 65.3822C167.84 63.404 167.129 61.4182 166.295 59.4787C166.1 58.9606 165.817 58.4797 165.46 58.0569C165.28 57.8472 165.054 57.6822 164.799 57.5749C164.544 57.4677 164.268 57.421 163.992 57.4387C163.219 57.7633 163.706 60.6609 163.714 61.3023L163.783 65.6912Z" fill="#4D6461"/>
<path d="M226.295 86.4848L210.594 96.4141C210.319 96.5626 210.001 96.6129 209.693 96.5568C209.386 96.5006 209.107 96.3412 208.902 96.105L203.91 90.4797C203.807 90.3839 203.728 90.266 203.677 90.135C203.627 90.004 203.607 89.8632 203.619 89.7233C203.631 89.5834 203.674 89.4481 203.746 89.3275C203.818 89.2068 203.916 89.1041 204.034 89.027L219.766 79.1054C220.041 78.9569 220.359 78.9066 220.666 78.9628C220.974 79.019 221.253 79.1783 221.458 79.4145L226.45 85.0321C226.551 85.1301 226.628 85.2498 226.676 85.3822C226.724 85.5146 226.742 85.6561 226.727 85.7961C226.712 85.9361 226.665 86.0709 226.59 86.1902C226.516 86.3096 226.415 86.4103 226.295 86.4848Z" fill="#4D6461"/>
<defs>
<linearGradient id="paint0_linear_81_36" x1="156.435" y1="92.0947" x2="188.147" y2="91.6079" gradientUnits="userSpaceOnUse">
<stop offset="0.01"/>
<stop offset="0.13" stop-opacity="0.69"/>
<stop offset="1" stop-opacity="0"/>
</linearGradient>
<linearGradient id="paint1_linear_81_36" x1="252.583" y1="61.2482" x2="11.3049" y2="313.267" gradientUnits="userSpaceOnUse">
<stop offset="0.01"/>
<stop offset="0.13" stop-opacity="0.69"/>
<stop offset="1" stop-opacity="0"/>
</linearGradient>
<linearGradient id="paint2_linear_81_36" x1="188.093" y1="155.634" x2="118.835" y2="227.983" gradientUnits="userSpaceOnUse">
<stop offset="0.01"/>
<stop offset="0.13" stop-opacity="0.69"/>
<stop offset="1" stop-opacity="0"/>
</linearGradient>
<linearGradient id="paint3_linear_81_36" x1="87.1539" y1="145.056" x2="180.752" y2="203.681" gradientUnits="userSpaceOnUse">
<stop offset="0.01"/>
<stop offset="0.13" stop-opacity="0.69"/>
<stop offset="1" stop-opacity="0"/>
</linearGradient>
<linearGradient id="paint4_linear_81_36" x1="131.592" y1="177.015" x2="204.459" y2="177.015" gradientUnits="userSpaceOnUse">
<stop offset="0.01"/>
<stop offset="0.13" stop-opacity="0.69"/>
<stop offset="1" stop-opacity="0"/>
</linearGradient>
<linearGradient id="paint5_linear_81_36" x1="197.157" y1="246.08" x2="177.105" y2="240.934" gradientUnits="userSpaceOnUse">
<stop offset="0.01"/>
<stop offset="0.13" stop-opacity="0.69"/>
<stop offset="1" stop-opacity="0"/>
</linearGradient>
<linearGradient id="paint6_linear_81_36" x1="188.494" y1="254.765" x2="209.28" y2="254.765" gradientUnits="userSpaceOnUse">
<stop offset="0.01"/>
<stop offset="0.13" stop-opacity="0.69"/>
<stop offset="1" stop-opacity="0"/>
</linearGradient>
<linearGradient id="paint7_linear_81_36" x1="154.673" y1="62.6159" x2="176.1" y2="80.4422" gradientUnits="userSpaceOnUse">
<stop offset="0.01"/>
<stop offset="0.13" stop-opacity="0.69"/>
<stop offset="1" stop-opacity="0"/>
</linearGradient>
<linearGradient id="paint8_linear_81_36" x1="168.783" y1="61.8354" x2="129.181" y2="77.5214" gradientUnits="userSpaceOnUse">
<stop offset="0.01"/>
<stop offset="0.13" stop-opacity="0.69"/>
<stop offset="1" stop-opacity="0"/>
</linearGradient>
<linearGradient id="paint9_linear_81_36" x1="101.982" y1="107.719" x2="151.049" y2="106.019" gradientUnits="userSpaceOnUse">
<stop offset="0.01"/>
<stop offset="0.13" stop-opacity="0.69"/>
<stop offset="1" stop-opacity="0"/>
</linearGradient>
<linearGradient id="paint10_linear_81_36" x1="142.982" y1="188.073" x2="198.014" y2="164.93" gradientUnits="userSpaceOnUse">
<stop offset="0.01"/>
<stop offset="0.13" stop-opacity="0.69"/>
<stop offset="1" stop-opacity="0"/>
</linearGradient>
</defs>
</svg>
